<svg width="20" height="21" viewBox="0 0 20 21" fill="none" xmlns="http://www.w3.org/2000/svg">
<path fill-rule="evenodd" clip-rule="evenodd" d="M8.74996 17.2135H3.33329C2.75329 17.2135 2.29163 16.7185 2.29163 16.1201V4.97429C2.29163 4.37513 2.75329 3.88013 3.33329 3.88013H16.6666C17.2466 3.88013 17.7083 4.37513 17.7083 4.97429V10.3385C17.7083 10.6835 17.9883 10.9635 18.3333 10.9635C18.6783 10.9635 18.9583 10.6835 18.9583 10.3385V4.97429C18.9583 3.67513 17.9266 2.63013 16.6666 2.63013H3.33329C2.07329 2.63013 1.04163 3.67513 1.04163 4.97429V16.1201C1.04163 17.4185 2.07329 18.4635 3.33329 18.4635H8.74996C9.09496 18.4635 9.37496 18.1835 9.37496 17.8385C9.37496 17.4935 9.09496 17.2135 8.74996 17.2135Z" fill="current"/>
<path fill-rule="evenodd" clip-rule="evenodd" d="M3.95825 2.00513V4.50513C3.95825 4.85013 4.23825 5.13013 4.58325 5.13013C4.92825 5.13013 5.20825 4.85013 5.20825 4.50513V2.00513C5.20825 1.66013 4.92825 1.38013 4.58325 1.38013C4.23825 1.38013 3.95825 1.66013 3.95825 2.00513Z" fill="current"/>
<path fill-rule="evenodd" clip-rule="evenodd" d="M14.7916 2.00513V4.50513C14.7916 4.85013 15.0716 5.13013 15.4166 5.13013C15.7616 5.13013 16.0416 4.85013 16.0416 4.50513V2.00513C16.0416 1.66013 15.7616 1.38013 15.4166 1.38013C15.0716 1.38013 14.7916 1.66013 14.7916 2.00513Z" fill="current"/>
<path fill-rule="evenodd" clip-rule="evenodd" d="M9.375 2.00513V4.50513C9.375 4.85013 9.655 5.13013 10 5.13013C10.345 5.13013 10.625 4.85013 10.625 4.50513V2.00513C10.625 1.66013 10.345 1.38013 10 1.38013C9.655 1.38013 9.375 1.66013 9.375 2.00513Z" fill="current"/>
<path fill-rule="evenodd" clip-rule="evenodd" d="M1.66663 8.46338H18.3333C18.6783 8.46338 18.9583 8.18338 18.9583 7.83838C18.9583 7.49338 18.6783 7.21338 18.3333 7.21338H1.66663C1.32163 7.21338 1.04163 7.49338 1.04163 7.83838C1.04163 8.18338 1.32163 8.46338 1.66663 8.46338Z" fill="current"/>
<path fill-rule="evenodd" clip-rule="evenodd" d="M14.375 10.1301C11.845 10.1301 9.79163 12.1835 9.79163 14.7135C9.79163 17.2435 11.845 19.2968 14.375 19.2968C16.905 19.2968 18.9583 17.2435 18.9583 14.7135C18.9583 12.1835 16.905 10.1301 14.375 10.1301ZM14.375 11.3801C16.215 11.3801 17.7083 12.8735 17.7083 14.7135C17.7083 16.5535 16.215 18.0468 14.375 18.0468C12.535 18.0468 11.0416 16.5535 11.0416 14.7135C11.0416 12.8735 12.535 11.3801 14.375 11.3801Z" fill="current"/>
<path fill-rule="evenodd" clip-rule="evenodd" d="M13.75 12.8384V14.505C13.75 14.6509 13.8017 14.7925 13.895 14.905L14.9367 16.155C15.1575 16.42 15.5517 16.4559 15.8167 16.235C16.0817 16.0142 16.1175 15.62 15.8967 15.355L15 14.2784V12.8384C15 12.4934 14.72 12.2134 14.375 12.2134C14.03 12.2134 13.75 12.4934 13.75 12.8384Z" fill="current"/>
</svg>
