<svg width="20" height="21" viewBox="0 0 20 21" fill="none" xmlns="http://www.w3.org/2000/svg">
<path d="M11.6663 5.33793C11.6663 4.41746 12.4125 3.67126 13.333 3.67126H14.9997C15.9201 3.67126 16.6663 4.41746 16.6663 5.33793V7.0046C16.6663 7.92507 15.9201 8.67126 14.9997 8.67126H13.333C12.4125 8.67126 11.6663 7.92507 11.6663 7.0046V5.33793Z" stroke="current" stroke-width="1.5"/>
<path d="M3.33301 13.6713C3.33301 12.7508 4.0792 12.0046 4.99967 12.0046H6.66634C7.58682 12.0046 8.33301 12.7508 8.33301 13.6713V15.3379C8.33301 16.2584 7.58682 17.0046 6.66634 17.0046H4.99967C4.0792 17.0046 3.33301 16.2584 3.33301 15.3379V13.6713Z" stroke="current" stroke-width="1.5"/>
<path d="M3.33301 5.33793C3.33301 4.41746 4.0792 3.67126 4.99967 3.67126H6.66634C7.58682 3.67126 8.33301 4.41746 8.33301 5.33793V7.0046C8.33301 7.92507 7.58682 8.67126 6.66634 8.67126H4.99967C4.0792 8.67126 3.33301 7.92507 3.33301 7.0046V5.33793Z" stroke="current" stroke-width="1.5"/>
<path d="M11.6663 13.6713C11.6663 12.7508 12.4125 12.0046 13.333 12.0046H14.9997C15.9201 12.0046 16.6663 12.7508 16.6663 13.6713V15.3379C16.6663 16.2584 15.9201 17.0046 14.9997 17.0046H13.333C12.4125 17.0046 11.6663 16.2584 11.6663 15.3379V13.6713Z" stroke="current" stroke-width="1.5"/>
</svg>
