<svg width="20" height="21" viewBox="0 0 20 21" fill="none" xmlns="http://www.w3.org/2000/svg">
<path fill-rule="evenodd" clip-rule="evenodd" d="M8.33264 2.00146H11.6674C12.5882 2.00146 13.3347 2.74797 13.3347 3.66883V7.00355C13.3347 8.84526 11.8417 10.3383 10 10.3383V10.3383C8.15829 10.3383 6.66528 8.84526 6.66528 7.00355V3.66883C6.66528 2.74797 7.41179 2.00146 8.33264 2.00146Z" stroke="current" stroke-width="1.17" stroke-linecap="round" stroke-linejoin="round"/>
<path d="M11.7515 9.84229L12.371 12.32" stroke="current" stroke-width="1.17" stroke-linecap="round" stroke-linejoin="round"/>
<path d="M8.25011 9.84229L7.63069 12.32" stroke="current" stroke-width="1.17" stroke-linecap="round" stroke-linejoin="round"/>
<path d="M6.66525 12.1362V15.3404" stroke="current" stroke-width="1.17" stroke-linecap="round" stroke-linejoin="round"/>
<circle cx="6.66532" cy="16.5909" r="1.25052" stroke="current" stroke-width="1.17" stroke-linecap="round" stroke-linejoin="round"/>
<path d="M13.3347 12.1362V15.3404" stroke="current" stroke-width="1.17" stroke-linecap="round" stroke-linejoin="round"/>
<path d="M11.8987 17.8414C11.7493 17.5888 11.6695 17.3011 11.6674 17.0077V17.0077C11.6674 16.0868 12.4139 15.3403 13.3347 15.3403V15.3403C14.2556 15.3403 15.0021 16.0868 15.0021 17.0077V17.0077C14.9999 17.3011 14.9201 17.5888 14.7707 17.8414" stroke="current" stroke-width="1.17" stroke-linecap="round" stroke-linejoin="round"/>
<path d="M13.3347 5.33615H6.66528" stroke="current" stroke-width="1.17" stroke-linecap="round" stroke-linejoin="round"/>
<path d="M2.49695 16.174V15.0201C2.49695 13.8278 3.33853 12.8013 4.50766 12.5675L6.88044 12.0932C7.07648 12.0539 7.28007 12.0941 7.44651 12.2049V12.2049C8.99269 13.2362 11.0075 13.2362 12.5536 12.2049V12.2049C12.7201 12.0941 12.9237 12.0539 13.1197 12.0932L15.4925 12.5675C16.6616 12.8013 17.5032 13.8278 17.5032 15.0201V16.174" stroke="current" stroke-width="1.17" stroke-linecap="round" stroke-linejoin="round"/>
</svg>
