<svg width="20" height="21" viewBox="0 0 20 21" fill="none" xmlns="http://www.w3.org/2000/svg">
<mask id="mask0_12110_39033" style="mask-type:luminance" maskUnits="userSpaceOnUse" x="1" y="1" width="18" height="19">
<path d="M1 1.33838H19V19.3384H1V1.33838Z" fill="white"/>
</mask>
<g mask="url(#mask0_12110_39033)">
<path d="M10 16.1894V18.7966" stroke="current" stroke-miterlimit="22.926" stroke-linecap="round" stroke-linejoin="round"/>
<path d="M5.78125 18.9868H14.2188V16.8774H5.78125V18.9868Z" stroke="current" stroke-miterlimit="22.926" stroke-linecap="round" stroke-linejoin="round"/>
<path d="M5.35537 13.3308C4.97086 12.7103 4.57975 11.9033 4.26749 11.1142C4.14838 10.8132 4.10176 10.4884 4.35668 10.2741C4.6116 10.0599 4.98855 10.0873 5.19439 10.335C5.39165 10.5724 6.55947 12.0404 6.75669 12.2777C7.8451 13.5878 9.78621 13.9565 10 16.1895C10.2138 13.9565 12.1549 13.5878 13.2433 12.2777C13.4406 12.0404 14.6084 10.5724 14.8056 10.335C15.0115 10.0873 15.3884 10.0599 15.6433 10.2741C15.8982 10.4884 15.8516 10.8132 15.7325 11.1142C15.4203 11.9033 15.0292 12.7103 14.6447 13.3308M15.7911 10.4762L17.4384 7.7803C17.9536 6.9704 18.9194 7.592 18.5765 8.32311C18.3364 8.82131 17.3848 11.1914 16.6701 12.7635C16.156 13.8943 15.9485 14.1843 15.0411 15.0091L13.6616 16.263V16.6807M4.20885 10.4762L2.56164 7.7803C2.04639 6.9704 1.08061 7.592 1.42356 8.32311C1.66361 8.82131 2.61522 11.1914 3.32994 12.7635C3.844 13.8943 4.05149 14.1843 4.95894 15.0091L6.33844 16.263V16.6807" stroke="current" stroke-miterlimit="22.926" stroke-linecap="round" stroke-linejoin="round"/>
<path d="M10 10.1274C12.3236 10.1274 14.2188 8.23231 14.2188 5.90869C14.2188 3.58507 12.3236 1.68994 10 1.68994C7.67638 1.68994 5.78125 3.58507 5.78125 5.90869C5.78125 8.23231 7.67638 10.1274 10 10.1274Z" stroke="current" stroke-miterlimit="22.926" stroke-linecap="round" stroke-linejoin="round"/>
<path d="M9.12109 3.79932H10.8789V5.02979H12.1094V6.7876H10.8789V8.01807H9.12109V6.7876H7.89062V5.02979H9.12109V3.79932Z" stroke="current" stroke-miterlimit="22.926" stroke-linecap="round" stroke-linejoin="round"/>
</g>
</svg>
