<svg width="20" height="21" viewBox="0 0 20 21" fill="none" xmlns="http://www.w3.org/2000/svg">
<path d="M2.5 18.6716H17.5" stroke="current" stroke-width="1.5" stroke-linecap="round" stroke-linejoin="round"/>
<path d="M4.66665 7.32178H3.33333C2.875 7.32178 2.5 7.69678 2.5 8.15511V15.3384C2.5 15.7968 2.875 16.1718 3.33333 16.1718H4.66665C5.12498 16.1718 5.49998 15.7968 5.49998 15.3384V8.15511C5.49998 7.69678 5.12498 7.32178 4.66665 7.32178Z" stroke="current" stroke-width="1.5" stroke-linecap="round" stroke-linejoin="round"/>
<path d="M10.6666 4.66357H9.33333C8.875 4.66357 8.5 5.03857 8.5 5.49691V15.3386C8.5 15.7969 8.875 16.1719 9.33333 16.1719H10.6666C11.125 16.1719 11.5 15.7969 11.5 15.3386V5.49691C11.5 5.03857 11.125 4.66357 10.6666 4.66357Z" stroke="current" stroke-width="1.5" stroke-linecap="round" stroke-linejoin="round"/>
<path d="M16.6666 2.00513H15.3333C14.875 2.00513 14.5 2.38013 14.5 2.83846V15.3385C14.5 15.7968 14.875 16.1718 15.3333 16.1718H16.6666C17.125 16.1718 17.5 15.7968 17.5 15.3385V2.83846C17.5 2.38013 17.125 2.00513 16.6666 2.00513Z" stroke="current" stroke-width="1.5" stroke-linecap="round" stroke-linejoin="round"/>
</svg>
