<svg width="20" height="21" viewBox="0 0 20 21" fill="none" xmlns="http://www.w3.org/2000/svg">
<path fill-rule="evenodd" clip-rule="evenodd" d="M9.97729 17.3119C7.27812 17.3119 4.97229 16.9035 4.97229 15.2685C4.97229 13.6335 7.26312 12.2102 9.97729 12.2102C12.6765 12.2102 14.9823 13.6202 14.9823 15.2544C14.9823 16.8885 12.6915 17.3119 9.97729 17.3119Z" stroke="current" stroke-width="1.5" stroke-linecap="round" stroke-linejoin="round"/>
<path fill-rule="evenodd" clip-rule="evenodd" d="M9.97715 9.87897C11.7488 9.87897 13.1855 8.44313 13.1855 6.67147C13.1855 4.8998 11.7488 3.46313 9.97715 3.46313C8.20548 3.46313 6.76881 4.8998 6.76881 6.67147C6.76381 8.43647 8.18881 9.87313 9.95465 9.87897H9.97715Z" stroke="current" stroke-width="1.5" stroke-linecap="round" stroke-linejoin="round"/>
<path d="M15.3019 8.99815C16.3327 8.72232 17.0927 7.78232 17.0927 6.66315C17.0927 5.49565 16.2652 4.52065 15.1636 4.29565" stroke="current" stroke-width="1.5" stroke-linecap="round" stroke-linejoin="round"/>
<path d="M15.7863 11.6255C17.2479 11.6255 18.4963 12.6163 18.4963 13.5013C18.4963 14.0222 18.0654 14.5897 17.4121 14.743" stroke="current" stroke-width="1.5" stroke-linecap="round" stroke-linejoin="round"/>
<path d="M4.65336 8.99815C3.62169 8.72232 2.86169 7.78232 2.86169 6.66315C2.86169 5.49565 3.69003 4.52065 4.79086 4.29565" stroke="current" stroke-width="1.5" stroke-linecap="round" stroke-linejoin="round"/>
<path d="M4.16837 11.6255C2.70671 11.6255 1.45837 12.6163 1.45837 13.5013C1.45837 14.0222 1.88921 14.5897 2.54337 14.743" stroke="current" stroke-width="1.5" stroke-linecap="round" stroke-linejoin="round"/>
</svg>
