<svg width="24" height="24" viewBox="0 0 24 24" fill="none" xmlns="http://www.w3.org/2000/svg">
  <path d="M2.3955 19.4117C2.44964 18.9943 2.47589 18.832 2.53842 18.6713C2.59313 18.5338 2.6678 18.4011 2.75826 18.2783C2.86354 18.133 3.00827 17.9883 3.29774 17.6988L17.0319 3.96466C18.0721 2.9245 19.9246 2.9245 20.9648 3.96466C22.005 5.00482 22.005 6.85734 20.9648 7.8975L7.23067 21.6317C6.94119 21.9211 6.79646 22.0659 6.65118 22.1711C6.52834 22.2616 6.39566 22.3363 6.25819 22.3909C6.09752 22.4534 5.93518 22.4797 5.51773 22.5338L2.07025 22.8985L2.3955 19.4117Z" 
        stroke="black" 
        stroke-width="2" 
        stroke-linecap="round" 
        stroke-linejoin="round"/>
</svg>
