<svg width="16" height="16" viewBox="0 0 16 16" fill="none" xmlns="http://www.w3.org/2000/svg">
<g clip-path="url(#clip0_11733_9549)">
<path d="M13.0968 13.1816L14.0899 14.2723" stroke="black" stroke-width="0.93744" stroke-miterlimit="10" stroke-linecap="round" stroke-linejoin="round"/>
<path d="M14.1765 11.3633L15.5312 11.9741" stroke="black" stroke-width="0.93744" stroke-miterlimit="10" stroke-linecap="round" stroke-linejoin="round"/>
<path d="M6.90637 6.97044L9.87256 4.00919C10.2839 3.5985 10.9509 3.5985 11.3623 4.00919C11.7737 4.41988 11.7737 5.08578 11.3623 5.49647L8.39612 8.45772" stroke="black" stroke-width="0.93744" stroke-miterlimit="10" stroke-linecap="round" stroke-linejoin="round"/>
<path d="M8.39624 8.45707L10.7308 6.12638C11.1422 5.71569 11.8092 5.71569 12.2206 6.12638C12.632 6.53707 12.632 7.20297 12.2206 7.61366L8.79315 11.0353" stroke="black" stroke-width="0.93744" stroke-miterlimit="10" stroke-linecap="round" stroke-linejoin="round"/>
<path d="M12.0024 1.87247C12.4138 1.46178 13.0807 1.46178 13.4921 1.87247C13.9035 2.28316 13.9035 2.94906 13.4921 3.35975L10.7308 6.12789" stroke="black" stroke-width="0.93744" stroke-miterlimit="10" stroke-linecap="round" stroke-linejoin="round"/>
<path d="M12.8605 3.98966C13.2719 3.57897 13.9389 3.57897 14.3503 3.98966C14.7617 4.40035 14.7617 5.06625 14.3503 5.47694L12.2206 7.61455L13.366 6.45959C13.7774 6.0489 14.4444 6.0489 14.8558 6.45959C15.2671 6.87029 15.2671 7.53618 14.8558 7.94687L12.7619 10.0469" stroke="black" stroke-width="0.93744" stroke-miterlimit="10" stroke-linecap="round" stroke-linejoin="round"/>
<path d="M3.91003 4.67686C4.33938 3.49816 4.68386 2.42854 4.86907 1.83548C4.95478 1.561 5.23785 1.39895 5.51852 1.46335L5.52477 1.46479C6.25541 1.63246 6.75229 2.27627 6.76269 2.99241C6.76519 3.16499 6.7342 3.33642 6.68107 3.50066L6.24101 4.81235L10.2982 0.762926C10.6885 0.373295 11.3213 0.373295 11.7116 0.762926C12.1019 1.15256 12.099 1.77664 11.7087 2.1663" stroke="black" stroke-width="0.93744" stroke-miterlimit="10" stroke-linecap="round" stroke-linejoin="round"/>
<path d="M12.0023 1.87305L9.59253 4.29027" stroke="black" stroke-width="0.93744" stroke-miterlimit="10" stroke-linecap="round" stroke-linejoin="round"/>
<path d="M8.79306 11.0383L11.2362 8.59921C11.6476 8.18852 12.3146 8.18852 12.726 8.59921C13.1373 9.00991 13.1373 9.6758 12.726 10.0865L8.68509 14.1206C7.02629 15.7766 4.41321 15.9975 2.49918 14.6434C0.808196 13.4472 0.0741802 11.3046 0.677173 9.32504C1.30888 7.25133 2.03502 4.86317 2.21148 4.26431C2.29376 3.98514 2.57952 3.81818 2.86359 3.88339C3.72316 4.08066 4.25922 4.93689 4.0602 5.79471L3.69867 7.35304L8.1791 2.88011C8.56938 2.49048 9.20215 2.49048 9.59247 2.88011C9.98276 3.26975 9.98276 3.90149 9.59247 4.29112L6.98277 6.89645" stroke="black" stroke-width="0.93744" stroke-miterlimit="10" stroke-linecap="round" stroke-linejoin="round"/>
</g>
<defs>
<clipPath id="clip0_11733_9549">
<rect width="16" height="16" fill="white"/>
</clipPath>
</defs>
</svg>
