<svg width="12" height="12" viewBox="0 0 12 12" fill="none" xmlns="http://www.w3.org/2000/svg">
<g clip-path="url(#clip0_11664_37920)">
<path d="M6.85632 5.64645L6.50277 6L6.85632 6.35355L11.3815 10.8787C11.4448 10.9455 11.4798 11.0343 11.479 11.1264C11.4781 11.2197 11.4407 11.3089 11.3748 11.3748C11.3089 11.4407 11.2197 11.4781 11.1264 11.479C11.0343 11.4798 10.9455 11.4448 10.8787 11.3815L6.35355 6.85632L6 6.50277L5.64645 6.85632L1.11754 11.3852L1.11749 11.3852L1.11145 11.3914C1.07864 11.4254 1.0394 11.4525 0.996011 11.4711C0.952617 11.4898 0.905949 11.4996 0.858732 11.5C0.81151 11.5004 0.764679 11.4914 0.720971 11.4735C0.677266 11.4556 0.637558 11.4292 0.604165 11.3958C0.570773 11.3624 0.544365 11.3227 0.526484 11.279C0.508601 11.2353 0.499603 11.1885 0.500013 11.1413C0.500424 11.094 0.510235 11.0474 0.528873 11.004C0.547512 10.9606 0.574606 10.9214 0.608573 10.8886L0.608625 10.8886L0.614771 10.8825L5.14368 6.35355L5.49723 6L5.14368 5.64645L0.618506 1.12127C0.55521 1.05447 0.520241 0.96569 0.521042 0.873579C0.521852 0.780331 0.559254 0.691132 0.625193 0.625193C0.691132 0.559254 0.780331 0.521852 0.873579 0.521042C0.96569 0.520241 1.05447 0.55521 1.12127 0.618506L5.64645 5.14368L6 5.49723L6.35355 5.14368L10.8825 0.614771L10.8825 0.614824L10.8886 0.608573C10.9214 0.574606 10.9606 0.547512 11.004 0.528874C11.0474 0.510235 11.094 0.500424 11.1413 0.500013C11.1885 0.499603 11.2353 0.508601 11.279 0.526483C11.3227 0.544365 11.3624 0.570773 11.3958 0.604165C11.4292 0.637558 11.4556 0.677266 11.4735 0.720971C11.4914 0.764679 11.5004 0.81151 11.5 0.858732C11.4996 0.905949 11.4898 0.952617 11.4711 0.996008C11.4525 1.0394 11.4254 1.07864 11.3914 1.11145L11.3914 1.11139L11.3852 1.11754L6.85632 5.64645Z" fill="#6B7280" stroke="#6B7280"/>
</g>
<defs>
<clipPath id="clip0_11664_37920">
<rect width="12" height="12" fill="white"/>
</clipPath>
</defs>
</svg>
