<svg width="21" height="20" viewBox="0 0 21 20" fill="none" xmlns="http://www.w3.org/2000/svg">
<path d="M13.4833 10.0009C13.4833 11.6509 12.1499 12.9842 10.4999 12.9842C8.84993 12.9842 7.5166 11.6509 7.5166 10.0009C7.5166 8.35091 8.84993 7.01758 10.4999 7.01758C12.1499 7.01758 13.4833 8.35091 13.4833 10.0009Z" stroke="#475467" stroke-width="1.5" stroke-linecap="round" stroke-linejoin="round"/>
<path d="M10.5001 16.8913C13.4418 16.8913 16.1834 15.1579 18.0918 12.1579C18.8418 10.9829 18.8418 9.00794 18.0918 7.83294C16.1834 4.83294 13.4418 3.09961 10.5001 3.09961C7.55845 3.09961 4.81678 4.83294 2.90845 7.83294C2.15845 9.00794 2.15845 10.9829 2.90845 12.1579C4.81678 15.1579 7.55845 16.8913 10.5001 16.8913Z" stroke="#475467" stroke-width="1.5" stroke-linecap="round" stroke-linejoin="round"/>
</svg>
