<svg width="28" height="28" viewBox="0 0 28 28" fill="none" xmlns="http://www.w3.org/2000/svg">
<path d="M25.2 23.4787H23.6303V12.2116C23.6303 11.689 23.201 11.2596 22.669 11.2596H19.337V3.60632C19.337 3.08365 18.9077 2.6543 18.385 2.6543H9.62105C9.09838 2.6543 8.66903 3.08365 8.66903 3.60632V11.2596H5.32768C4.79567 11.2596 4.36637 11.689 4.36637 12.2116V23.4787H2.80003C2.28415 23.4787 1.8667 23.8962 1.8667 24.4121C1.8667 24.9279 2.28415 25.3454 2.80003 25.3454H25.2C25.7159 25.3454 26.1334 24.9279 26.1334 24.4121C26.1334 23.8962 25.7159 23.4787 25.2 23.4787ZM17.5544 14.8717C17.5544 14.657 17.7317 14.4796 17.9464 14.4796H19.3837C19.5984 14.4796 19.7757 14.657 19.7757 14.8717V16.309C19.7757 16.5236 19.5984 16.701 19.3837 16.701H17.9464C17.7317 16.701 17.5544 16.5236 17.5544 16.309V14.8717ZM10.4424 20.9756C10.4424 21.1903 10.265 21.3676 10.0503 21.3676H8.61303C8.39838 21.3676 8.22105 21.1903 8.22105 20.9756V19.5383C8.22105 19.3236 8.39838 19.1463 8.61303 19.1463H10.0503C10.265 19.1463 10.4424 19.3236 10.4424 19.5383V20.9756ZM10.4984 16.3463C10.4984 16.5703 10.3117 16.757 10.0877 16.757H8.57572C8.35167 16.757 8.16505 16.5703 8.16505 16.3463V14.8343C8.16505 14.6103 8.35167 14.4236 8.57572 14.4236H10.0877C10.3117 14.4236 10.4984 14.6103 10.4984 14.8343V16.3463ZM15.1183 20.985C15.1183 21.1996 14.941 21.377 14.7264 21.377H13.2704C13.0557 21.377 12.8784 21.1996 12.8784 20.985V19.529C12.8784 19.3143 13.0557 19.1369 13.2704 19.1369H14.7264C14.941 19.1369 15.1183 19.3143 15.1183 19.529V20.985ZM15.1183 16.3183C15.1183 16.533 14.941 16.7103 14.7264 16.7103H13.2704C13.0557 16.7103 12.8784 16.533 12.8784 16.3183V14.8623C12.8784 14.6476 13.0557 14.4703 13.2704 14.4703H14.7264C14.941 14.4703 15.1183 14.6476 15.1183 14.8623V16.3183ZM15.8277 8.27298H14.7917V9.30897C14.7917 9.82229 14.3717 10.2423 13.8584 10.2423C13.345 10.2423 12.925 9.82229 12.925 9.30897V8.27298H11.889C11.3757 8.27298 10.9557 7.85297 10.9557 7.33965C10.9557 6.82627 11.3757 6.40632 11.889 6.40632H12.925V5.37027C12.925 4.85695 13.345 4.43694 13.8584 4.43694C14.3717 4.43694 14.7917 4.85695 14.7917 5.37027V6.40632H15.8277C16.341 6.40632 16.761 6.82627 16.761 7.33965C16.761 7.85297 16.341 8.27298 15.8277 8.27298ZM19.8317 21.0129C19.8317 21.2369 19.645 21.4236 19.421 21.4236H17.909C17.685 21.4236 17.4984 21.2369 17.4984 21.0129V19.501C17.4984 19.277 17.685 19.0903 17.909 19.0903H19.421C19.645 19.0903 19.8317 19.277 19.8317 19.501V21.0129Z" fill="#254F72"/>
</svg>
