<svg width="24" height="24" viewBox="0 0 24 24" fill="none" xmlns="http://www.w3.org/2000/svg">
<path d="M22.1154 7.20513C22.6038 7.20513 23 6.82612 23 6.35897V1.84615C23 1.37901 22.6038 1 22.1154 1H17.3974C16.9091 1 16.5128 1.37901 16.5128 1.84615C16.5128 2.3133 16.9091 2.69231 17.3974 2.69231H19.9799L16.4635 6.05578C15.101 5.01269 13.3769 4.38462 11.5 4.38462C9.62314 4.38462 7.89898 5.01269 6.53649 6.05578L3.02014 2.69231H5.60256C6.09094 2.69231 6.48718 2.3133 6.48718 1.84615C6.48718 1.37901 6.09094 1 5.60256 1H0.884615C0.396237 1 0 1.37901 0 1.84615V6.35897C0 6.82612 0.396237 7.20513 0.884615 7.20513C1.37299 7.20513 1.76923 6.82612 1.76923 6.35897V3.88883L5.28559 7.2523C4.19508 8.55561 3.53846 10.2048 3.53846 12C3.53846 13.7952 4.19508 15.4444 5.28559 16.7477L1.76923 20.1112V17.641C1.76923 17.1739 1.37299 16.7949 0.884615 16.7949C0.396237 16.7949 0 17.1739 0 17.641V22.1538C0 22.621 0.396237 23 0.884615 23H5.60256C6.09094 23 6.48718 22.621 6.48718 22.1538C6.48718 21.6867 6.09094 21.3077 5.60256 21.3077H3.02014L6.53649 17.9442C7.89898 18.9873 9.62314 19.6154 11.5 19.6154C13.3769 19.6154 15.101 18.9873 16.4635 17.9442L19.9799 21.3077H17.3974C16.9091 21.3077 16.5128 21.6867 16.5128 22.1538C16.5128 22.621 16.9091 23 17.3974 23H22.1154C22.6038 23 23 22.621 23 22.1538V17.641C23 17.1739 22.6038 16.7949 22.1154 16.7949C21.627 16.7949 21.2308 17.1739 21.2308 17.641V20.1112L17.7144 16.7477C18.8049 15.4444 19.4615 13.7952 19.4615 12C19.4615 10.2048 18.8049 8.55561 17.7144 7.2523L21.2308 3.88883V6.35897C21.2308 6.82612 21.627 7.20513 22.1154 7.20513ZM10.6154 7.76923H10.3205C9.1825 7.76923 8.25641 8.65505 8.25641 9.74359V10.8718C8.25641 11.9603 9.1825 12.8462 10.3205 12.8462H12.6795C12.8419 12.8462 12.9744 12.9729 12.9744 13.1282V14.2564C12.9744 14.4118 12.8419 14.5385 12.6795 14.5385H9.14103C8.65265 14.5385 8.25641 14.9175 8.25641 15.3846C8.25641 15.8518 8.65265 16.2308 9.14103 16.2308H10.6154V17.8375C7.62204 17.4225 5.30769 14.9759 5.30769 12C5.30769 9.02407 7.62204 6.57746 10.6154 6.16252V7.76923ZM12.3846 16.2308H12.6795C13.8175 16.2308 14.7436 15.3449 14.7436 14.2564V13.1282C14.7436 12.0397 13.8175 11.1538 12.6795 11.1538H10.3205C10.1581 11.1538 10.0256 11.0271 10.0256 10.8718V9.74359C10.0256 9.58824 10.1581 9.46154 10.3205 9.46154H13.859C14.3474 9.46154 14.7436 9.08253 14.7436 8.61539C14.7436 8.14824 14.3474 7.76923 13.859 7.76923H12.3846V6.16252C15.378 6.57747 17.6923 9.02408 17.6923 12C17.6923 14.9759 15.378 17.4225 12.3846 17.8375V16.2308Z" fill="#F04438"/>
</svg>
