<svg width="19" height="19" viewBox="0 0 19 19" fill="none" xmlns="http://www.w3.org/2000/svg">
<path d="M1.89662 15.0973C1.93491 14.7527 1.95405 14.5804 2.00618 14.4194C2.05243 14.2765 2.11778 14.1405 2.20045 14.0152C2.29363 13.8739 2.41621 13.7513 2.66136 13.5061L13.6666 2.5009C14.5871 1.58043 16.0795 1.58043 16.9999 2.5009C17.9204 3.42138 17.9204 4.91376 16.9999 5.83424L5.99469 16.8395C5.74954 17.0846 5.62696 17.2072 5.48566 17.3004C5.36029 17.383 5.22433 17.4484 5.08146 17.4946C4.92042 17.5468 4.74813 17.5659 4.40356 17.6042L1.58325 17.9176L1.89662 15.0973Z" stroke="#2D99FE" stroke-width="1.66667" stroke-linecap="round" stroke-linejoin="round"/>
</svg>
