<svg width="22" height="20" viewBox="0 0 22 20" fill="none" xmlns="http://www.w3.org/2000/svg">
<path d="M17 5H17.75C17.75 4.80109 17.671 4.61032 17.5303 4.46967C17.3897 4.32902 17.1989 4.25 17 4.25V5ZM5 5V4.25C4.80109 4.25 4.61032 4.32902 4.46967 4.46967C4.32902 4.61032 4.25 4.80109 4.25 5H5ZM16.25 5V9H17.75V5H16.25ZM16.25 9V17H17.75V9H16.25ZM15 18.25H7V19.75H15V18.25ZM5.75 17V5H4.25V17H5.75ZM5 5.75H17V4.25H5V5.75ZM5 1.75H17V0.25H5V1.75ZM1.75 5C1.75 3.20508 3.20507 1.75 5 1.75V0.25C2.37665 0.25 0.25 2.37665 0.25 5H1.75ZM5 8.25C3.20507 8.25 1.75 6.79493 1.75 5H0.25C0.25 7.62335 2.37665 9.75 5 9.75V8.25ZM20.25 5C20.25 6.79493 18.7949 8.25 17 8.25V9.75C19.6234 9.75 21.75 7.62335 21.75 5H20.25ZM21.75 5C21.75 2.37665 19.6234 0.25 17 0.25V1.75C18.7949 1.75 20.25 3.20508 20.25 5H21.75ZM16.25 17C16.25 17.6904 15.6904 18.25 15 18.25V19.75C16.5188 19.75 17.75 18.5188 17.75 17H16.25ZM7 18.25C6.30964 18.25 5.75 17.6904 5.75 17H4.25C4.25 18.5188 5.48122 19.75 7 19.75V18.25Z" fill="#667085"/>
<path d="M12.4697 11.1161C12.7626 11.409 13.2374 11.409 13.5303 11.1161C13.8232 10.8232 13.8232 10.3483 13.5303 10.0555L12.4697 11.1161ZM8.46967 10.0555C8.17678 10.3483 8.17678 10.8232 8.46967 11.1161C8.76256 11.409 9.2374 11.409 9.5303 11.1161L8.46967 10.0555ZM10.25 14.5858C10.25 15 10.5858 15.3358 11 15.3358C11.4142 15.3358 11.75 15 11.75 14.5858H10.25ZM11.75 9.58583C11.75 9.17163 11.4142 8.83583 11 8.83583C10.5858 8.83583 10.25 9.17163 10.25 9.58583H11.75ZM13.5303 10.0555L12.2374 8.76262L11.1768 9.82323L12.4697 11.1161L13.5303 10.0555ZM9.7626 8.76262L8.46967 10.0555L9.5303 11.1161L10.8232 9.82323L9.7626 8.76262ZM12.2374 8.76262C11.554 8.07912 10.446 8.07912 9.7626 8.76262L10.8232 9.82323C10.9209 9.72563 11.0791 9.72563 11.1768 9.82323L12.2374 8.76262ZM11.75 14.5858V9.58583H10.25V14.5858H11.75Z" fill="#667085"/>
</svg>
