<svg width="17" height="14" viewBox="0 0 17 14" fill="none" xmlns="http://www.w3.org/2000/svg">
<path d="M0.999347 8.74106C1.18685 8.74106 1.37247 8.65731 1.49497 8.49731L1.76685 8.14418C2.17372 10.5579 3.86435 12.6229 6.26435 13.4561C7.0031 13.7123 7.76122 13.8354 8.50935 13.8354C10.7493 13.8354 12.905 12.7304 14.1956 10.7848C14.3862 10.4973 14.3075 10.1092 14.02 9.91856C13.7312 9.72668 13.345 9.80668 13.1531 10.0942C11.7475 12.2154 9.0831 13.1129 6.67497 12.2754C4.67685 11.5817 3.2831 9.84231 2.9856 7.82231L3.5206 8.23418C3.79497 8.44356 4.18685 8.39356 4.39685 8.11981C4.60747 7.84606 4.55685 7.45418 4.2831 7.24356C4.2831 7.24356 2.80497 6.10543 2.80122 6.10293C2.4906 5.86356 2.04872 5.72918 1.76747 6.09606L0.504972 7.73543C0.294347 8.00918 0.344972 8.40106 0.618722 8.61168C0.731847 8.69856 0.866222 8.74106 0.999347 8.74106Z" fill="#F16363"/>
<path d="M2.98059 4.08127C3.26746 4.2719 3.65559 4.19315 3.84746 3.90565C5.25309 1.78502 7.91996 0.887521 10.3256 1.7244C12.3237 2.41815 13.7175 4.15752 14.015 6.17752L13.48 5.76565C13.2056 5.55565 12.8137 5.60565 12.6037 5.88002C12.3931 6.15377 12.4437 6.54565 12.7175 6.75627C12.7175 6.75627 14.1956 7.89377 14.1993 7.8969C14.5156 8.14002 14.9475 8.27627 15.2331 7.90377L16.4956 6.2644C16.7062 5.99065 16.6556 5.59877 16.3818 5.38815C16.1081 5.17752 15.7156 5.22877 15.5056 5.50252L15.2337 5.85565C14.8268 3.4419 13.1362 1.3769 10.7362 0.543771C7.78621 -0.479979 4.52621 0.618146 2.80496 3.2144C2.61434 3.50252 2.69309 3.89002 2.98059 4.08127Z" fill="#F16363"/>
</svg>
