<svg width="16" height="14" viewBox="0 0 16 14" fill="none" xmlns="http://www.w3.org/2000/svg">
<path d="M10.6666 3.85714L5.33325 6.14286M5.33325 7.85714L10.6666 10.1429M5.33325 7C5.33325 8.10457 4.43782 9 3.33325 9C2.22868 9 1.33325 8.10457 1.33325 7C1.33325 5.89543 2.22868 5 3.33325 5C4.43782 5 5.33325 5.89543 5.33325 7ZM14.6666 3C14.6666 4.10457 13.7712 5 12.6666 5C11.562 5 10.6666 4.10457 10.6666 3C10.6666 1.89543 11.562 1 12.6666 1C13.7712 1 14.6666 1.89543 14.6666 3ZM14.6666 11C14.6666 12.1046 13.7712 13 12.6666 13C11.562 13 10.6666 12.1046 10.6666 11C10.6666 9.89543 11.562 9 12.6666 9C13.7712 9 14.6666 9.89543 14.6666 11Z" stroke="#323539" stroke-width="1.5" stroke-linecap="round"/>
</svg>
