<svg width="14" height="14" viewBox="0 0 14 14" fill="none" xmlns="http://www.w3.org/2000/svg">
<g clip-path="url(#clip0_11631_2035)">
<path d="M13.6942 4.71208C13.658 4.60708 13.5659 4.53125 13.4562 4.51666L9.23169 3.95666L7.26235 0.00866406C7.16435 -0.189086 6.83827 -0.189086 6.74027 0.00866406L4.77094 3.95666L0.546436 4.51666C0.436769 4.53125 0.344019 4.60708 0.308435 4.71208C0.272852 4.81708 0.299685 4.93316 0.378436 5.01191L3.47652 8.11L2.63244 12.3316C2.61085 12.4412 2.65285 12.5527 2.74152 12.6209C2.83019 12.6886 2.95035 12.6997 3.04894 12.6501L7.0016 10.6737L10.9543 12.6501C10.9957 12.6705 11.04 12.681 11.0849 12.681C11.1474 12.681 11.2104 12.6606 11.2623 12.6209C11.3504 12.5532 11.3929 12.4412 11.3714 12.3316L10.5273 8.11L13.6254 5.01191C13.7024 4.93375 13.7292 4.81766 13.6942 4.71208Z" fill="#FFB300"/>
</g>
<defs>
<clipPath id="clip0_11631_2035">
<rect width="14" height="14" fill="white"/>
</clipPath>
</defs>
</svg>
