<svg width="85" height="85" viewBox="0 0 85 85" fill="none" xmlns="http://www.w3.org/2000/svg">
<circle cx="42.5" cy="42.5" r="42.5" fill="#254F72"/>
<path d="M42.5 21.25C30.7912 21.25 21.25 30.7912 21.25 42.5C21.25 54.2088 30.7912 63.75 42.5 63.75C54.2088 63.75 63.75 54.2088 63.75 42.5C63.75 30.7912 54.2088 21.25 42.5 21.25ZM52.6575 37.6125L40.6087 49.6612C40.3112 49.9587 39.9075 50.1288 39.4825 50.1288C39.0575 50.1288 38.6538 49.9587 38.3563 49.6612L32.3425 43.6475C31.7262 43.0312 31.7262 42.0112 32.3425 41.395C32.9587 40.7787 33.9787 40.7787 34.595 41.395L39.4825 46.2825L50.405 35.36C51.0213 34.7438 52.0413 34.7438 52.6575 35.36C53.2738 35.9763 53.2738 36.975 52.6575 37.6125Z" fill="white"/>
</svg>
