<svg width="17" height="20" viewBox="0 0 17 20" fill="none" xmlns="http://www.w3.org/2000/svg">
<path d="M11.6668 5.00033V4.33366C11.6668 3.40024 11.6668 2.93353 11.4852 2.57701C11.3254 2.2634 11.0704 2.00844 10.7568 1.84865C10.4003 1.66699 9.93358 1.66699 9.00016 1.66699H7.66683C6.73341 1.66699 6.2667 1.66699 5.91018 1.84865C5.59658 2.00844 5.34161 2.2634 5.18182 2.57701C5.00016 2.93353 5.00016 3.40024 5.00016 4.33366V5.00033M6.66683 9.58366V13.7503M10.0002 9.58366V13.7503M0.833496 5.00033H15.8335M14.1668 5.00033V14.3337C14.1668 15.7338 14.1668 16.4339 13.8943 16.9686C13.6547 17.439 13.2722 17.8215 12.8018 18.0612C12.267 18.3337 11.567 18.3337 10.1668 18.3337H6.50016C5.10003 18.3337 4.39997 18.3337 3.86519 18.0612C3.39478 17.8215 3.01233 17.439 2.77265 16.9686C2.50016 16.4339 2.50016 15.7338 2.50016 14.3337V5.00033" stroke="#F16363" stroke-width="1.66667" stroke-linecap="round" stroke-linejoin="round"/>
</svg>
