<svg width="20" height="21" viewBox="0 0 20 21" fill="none" xmlns="http://www.w3.org/2000/svg">
<g clip-path="url(#clip0_11664_37862)">
<path d="M14.3968 9.34082C15.128 9.34082 15.7249 8.74395 15.7249 8.0127V2.79082C15.7249 2.05957 15.128 1.46582 14.3968 1.46582H5.60303C4.87178 1.46582 4.2749 2.05957 4.2749 2.79082V8.0127C4.2749 8.74395 4.87178 9.34082 5.60303 9.34082H8.50303L9.5499 10.4189C9.66865 10.5408 9.83115 10.6096 9.9999 10.6096C10.1687 10.6096 10.3312 10.5408 10.4499 10.4189L11.4968 9.34082H14.3968ZM9.9999 6.34082C9.48115 6.34082 9.0624 5.91895 9.0624 5.40332C9.0624 4.88457 9.48115 4.46582 9.9999 4.46582C10.5187 4.46582 10.9374 4.88457 10.9374 5.40332C10.9374 5.91895 10.5187 6.34082 9.9999 6.34082ZM7.39678 6.34082C6.87803 6.34082 6.45928 5.91895 6.45928 5.40332C6.45928 4.88457 6.87803 4.46582 7.39678 4.46582C7.91553 4.46582 8.33428 4.88457 8.33428 5.40332C8.33428 5.91895 7.91553 6.34082 7.39678 6.34082ZM12.603 4.46582C13.1218 4.46582 13.5405 4.88457 13.5405 5.40332C13.5405 5.91895 13.1218 6.34082 12.603 6.34082C12.0843 6.34082 11.6655 5.91895 11.6655 5.40332C11.6655 4.88457 12.0843 4.46582 12.603 4.46582Z" fill="#254F72"/>
<path d="M12.4124 12.5095C12.4124 13.9814 13.6124 15.1783 15.0842 15.1783C16.5561 15.1783 17.7561 13.9814 17.7561 12.5095C17.7561 11.0376 16.5561 9.83765 15.0842 9.83765C13.6124 9.83765 12.4124 11.0376 12.4124 12.5095Z" fill="#254F72"/>
<path d="M18.2843 16.6781C17.6062 15.9625 16.6687 15.5 15.6125 15.4531C15.2625 15.4375 14.9093 15.4375 14.5593 15.4531C12.4468 15.5469 10.7937 17.3 10.7937 19.4406C10.7937 19.7875 11.075 20.0656 11.4187 20.0656H18.7499C19.0937 20.0656 19.375 19.7875 19.375 19.4406C19.375 18.3719 18.9625 17.3969 18.2843 16.6781Z" fill="#254F72"/>
<path d="M4.91553 15.1783C6.3874 15.1783 7.5874 13.9814 7.5874 12.5095C7.5874 11.0376 6.3874 9.83765 4.91553 9.83765C3.44365 9.83765 2.24365 11.0376 2.24365 12.5095C2.24365 13.9814 3.44365 15.1783 4.91553 15.1783Z" fill="#254F72"/>
<path d="M5.44062 15.4531C5.09062 15.4375 4.7375 15.4375 4.3875 15.4531C2.27812 15.5469 0.625 17.3 0.625 19.4406C0.625 19.7875 0.90625 20.0656 1.25 20.0656H8.58125C8.925 20.0656 9.20625 19.7875 9.20625 19.4406C9.20625 18.3719 8.79375 17.3969 8.11562 16.6781C7.4375 15.9625 6.49687 15.5 5.44062 15.4531Z" fill="#254F72"/>
</g>
<defs>
<clipPath id="clip0_11664_37862">
<rect width="20" height="20" fill="white" transform="translate(0 0.765869)"/>
</clipPath>
</defs>
</svg>
