<svg width="20" height="21" viewBox="0 0 20 21" fill="none" xmlns="http://www.w3.org/2000/svg">
<path fill-rule="evenodd" clip-rule="evenodd" d="M5.09428 4.11279H9.921C11.9394 4.11279 13.3485 5.50366 13.3485 7.49689V13.2287C13.3485 15.2219 11.9394 16.6128 9.921 16.6128H5.09428C3.07593 16.6128 1.66675 15.2219 1.66675 13.2287V7.49689C1.66675 5.50366 3.07593 4.11279 5.09428 4.11279ZM16.6316 6.09525C16.9974 5.90913 17.4266 5.92859 17.7758 6.14855C18.1249 6.36767 18.3333 6.74838 18.3333 7.16463V13.5614C18.3333 13.9785 18.1249 14.3584 17.7758 14.5775C17.5849 14.6968 17.3716 14.7577 17.1566 14.7577C16.9774 14.7577 16.7983 14.7154 16.6308 14.6299L15.3966 14.0073C14.9399 13.7755 14.6566 13.3101 14.6566 12.7932V7.93197C14.6566 7.4142 14.9399 6.94889 15.3966 6.71877L16.6316 6.09525Z" fill="#254F72"/>
</svg>
