<svg width="25" height="24" viewBox="0 0 25 24" fill="none" xmlns="http://www.w3.org/2000/svg">
<g clip-path="url(#clip0_11792_18304)">
<path d="M20.8784 4.61637L19.8778 5.6169C19.6261 5.86857 19.6136 6.25983 19.8266 6.54506C20.9638 8.06778 21.6874 9.95373 21.6874 12.0005C21.6874 14.0472 20.9639 15.9799 19.8268 17.5026C19.6139 17.7879 19.6263 18.179 19.8779 18.4307L20.8777 19.4308C21.1742 19.7287 21.6681 19.6999 21.9296 19.3662C23.5803 17.248 24.4999 14.6708 24.4999 12.0005C24.4999 9.33353 23.5809 6.80259 21.9303 4.68157C21.6756 4.35331 21.1825 4.31225 20.8784 4.61637Z" fill="#12B76A"/>
<path d="M19.819 2.56956C17.698 0.918927 15.1671 0 12.5002 0C6.48593 0 1.25306 4.54368 0.50602 10.5064C0.453192 10.9217 0.777141 11.2967 1.20361 11.2967H2.63276C2.98258 11.2967 3.27771 11.0404 3.32772 10.6942C3.96854 6.26547 7.8961 2.81247 12.5002 2.81247C14.5469 2.81247 16.4328 3.53611 17.9556 4.67329C18.2409 4.88633 18.6321 4.87372 18.8838 4.62206L19.8843 3.62152C20.183 3.32284 20.1528 2.82854 19.819 2.56956Z" fill="#12B76A"/>
<path d="M11.0058 23.9944C11.4434 24.0453 11.7969 23.7059 11.7969 23.2968V21.8782C11.7969 21.523 11.5286 21.2384 11.1769 21.1874C7.19016 20.6086 3.90834 17.3099 3.32959 13.3231C3.27863 12.9714 2.99401 12.7031 2.63875 12.7031H1.20341C0.776334 12.7031 0.452994 13.0787 0.505775 13.4934C1.18419 18.9096 5.58143 23.3132 11.0058 23.9944Z" fill="#12B76A"/>
<path d="M18.8829 19.4231C18.6315 19.1717 18.2411 19.1592 17.956 19.3718C16.7678 20.258 15.3577 20.9641 13.8229 21.1865C13.4714 21.2375 13.2031 21.5218 13.2031 21.877V23.2966C13.2031 23.7067 13.5575 24.045 13.9941 23.9942C16.1157 23.7276 18.137 22.788 19.8367 21.4638C20.1712 21.2032 20.1846 20.7248 19.8847 20.4251L18.8829 19.4231Z" fill="#12B76A"/>
<path d="M12.5001 6.375C9.39345 6.375 6.87512 8.89333 6.87512 11.9999C6.87512 15.1064 9.39345 17.6717 12.5001 17.6717C15.6067 17.6717 18.125 15.1064 18.125 11.9999C18.125 8.89333 15.6067 6.375 12.5001 6.375ZM13.6784 14.5304C13.5261 14.6066 13.3664 14.6665 13.2031 14.7119V14.9061C13.2031 15.2945 12.8883 15.6093 12.5 15.6093C12.1117 15.6093 11.7968 15.2945 11.7968 14.9061V14.7338C11.5042 14.6602 11.2312 14.5363 11 14.3629C10.6893 14.1299 10.6263 13.6892 10.8594 13.3785C11.0924 13.0679 11.5331 13.0049 11.8437 13.2379C12.125 13.4488 12.6659 13.4645 13.0495 13.2727C13.2036 13.1956 13.2868 13.1027 13.2868 13.0546C13.2868 12.9705 13.2868 12.9575 13.1933 12.9076C13.0098 12.8096 12.6854 12.7495 12.3717 12.6913C11.9529 12.6136 11.5198 12.5332 11.1445 12.3329C10.5965 12.0404 10.3068 11.5606 10.3068 10.9453C10.3068 10.3292 10.6763 9.79121 11.3204 9.46918C11.473 9.39282 11.6331 9.3324 11.7968 9.28698V9.09372C11.7968 8.70541 12.1117 8.3906 12.5 8.3906C12.8883 8.3906 13.2031 8.70541 13.2031 9.09372V9.26589C13.4958 9.33962 13.7687 9.4636 13.9999 9.63699C14.3106 9.87001 14.3736 10.3107 14.1406 10.6214C13.9076 10.932 13.4669 10.995 13.1562 10.762C12.8745 10.5507 12.3331 10.5351 11.9492 10.7269C11.7942 10.8044 11.7131 10.8954 11.7131 10.9452C11.7131 11.0294 11.7131 11.0423 11.8066 11.0923C11.9901 11.1902 12.3145 11.2504 12.6282 11.3086C13.047 11.3863 13.4801 11.4666 13.8554 11.6669C14.4034 11.9594 14.6931 12.4393 14.6931 13.0546C14.6931 13.6701 14.3232 14.208 13.6784 14.5304Z" fill="#12B76A"/>
</g>
<defs>
<clipPath id="clip0_11792_18304">
<rect width="24" height="24" fill="white" transform="translate(0.5)"/>
</clipPath>
</defs>
</svg>
