<svg width="207" height="106" viewBox="0 0 207 106" fill="none" xmlns="http://www.w3.org/2000/svg">
<g clip-path="url(#clip0_226_333)">
<path fill-rule="evenodd" clip-rule="evenodd" d="M106.162 10.5049L103.333 0L100.505 10.5049L90 13.3333L100.505 16.1618L103.333 26.6667L103.821 24.8573L103.96 25.3738L104.389 25.2582L104.051 24.0026L106.162 16.1618L114.003 14.0506L115.258 14.3887L115.374 13.9596L114.857 13.8205L116.667 13.3333L106.162 10.5049ZM114.857 13.8205L113.623 13.4882L113.507 13.9173L114.003 14.0506L114.857 13.8205ZM104.051 24.0026L103.917 23.5074L103.488 23.623L103.821 24.8573L104.051 24.0026ZM104.902 2.20874L104.89 2.21197L104.86 2.32429L104.667 2.2722L104.473 2.32429L104.443 2.21197L104.431 2.20874L104.667 1.33333L104.902 2.20874ZM105.374 3.95956L105.845 5.71038L105.416 5.82593L104.945 4.07511L105.374 3.95956ZM106.317 7.4612L106.788 9.21201L106.359 9.32756L105.887 7.57675L106.317 7.4612ZM107.259 10.9628L107.495 11.8382L108.371 12.0739L108.255 12.5031L107.132 12.2009L106.83 11.0784L107.259 10.9628ZM110.121 12.5453L111.872 13.0168L111.757 13.4459L110.006 12.9745L110.121 12.5453ZM117.121 14.443L117.125 14.431L118 14.6667L117.125 14.9024L117.121 14.8904L117.009 14.8601L117.061 14.6667L117.009 14.4732L117.121 14.443ZM115.374 15.3738L113.623 15.8452L113.507 15.416L115.258 14.9446L115.374 15.3738ZM111.872 16.3166L110.121 16.788L110.006 16.3588L111.757 15.8874L111.872 16.3166ZM108.371 17.2594L107.495 17.4951L107.259 18.3705L106.83 18.255L107.132 17.1325L108.255 16.8302L108.371 17.2594ZM106.788 20.1213L106.317 21.8721L105.887 21.7566L106.359 20.0058L106.788 20.1213ZM105.845 23.623L105.374 25.3738L104.945 25.2582L105.416 23.5074L105.845 23.623ZM104.89 27.1214L104.902 27.1246L104.667 28L104.431 27.1246L104.443 27.1214L104.473 27.009L104.667 27.0611L104.86 27.009L104.89 27.1214ZM103.017 21.8721L102.545 20.1213L102.975 20.0058L103.446 21.7566L103.017 21.8721ZM102.074 18.3705L101.838 17.4951L100.963 17.2594L101.078 16.8302L102.201 17.1325L102.503 18.255L102.074 18.3705ZM99.212 16.788L97.4612 16.3166L97.5767 15.8874L99.3276 16.3588L99.212 16.788ZM95.7104 15.8452L93.9596 15.3738L94.0751 14.9446L95.8259 15.416L95.7104 15.8452ZM92.212 14.8904L92.2087 14.9024L91.3333 14.6667L92.2087 14.431L92.212 14.443L92.3243 14.4732L92.2722 14.6667L92.3243 14.8601L92.212 14.8904ZM93.9596 13.9596L95.7104 13.4882L95.8259 13.9173L94.0751 14.3887L93.9596 13.9596ZM97.4612 13.0168L99.212 12.5453L99.3276 12.9745L97.5767 13.4459L97.4612 13.0168ZM100.963 12.0739L101.838 11.8382L102.074 10.9628L102.503 11.0784L102.201 12.2009L101.078 12.5031L100.963 12.0739ZM102.545 9.21201L103.017 7.4612L103.446 7.57675L102.975 9.32756L102.545 9.21201ZM103.488 5.71038L103.96 3.95956L104.389 4.07511L103.917 5.82593L103.488 5.71038Z" fill="#E9EFFD"/>
<path d="M199.426 75.2207L199.501 75.4987L199.779 75.5735L201.552 76.0508C201.819 76.1226 202.093 75.9646 202.165 75.698L204.744 76.3926C204.674 76.6529 204.823 76.9205 205.078 76.9999C204.823 77.0793 204.674 77.3469 204.744 77.6072L202.165 78.3018C202.093 78.0352 201.819 77.8772 201.552 77.949L199.779 78.4263L199.501 78.5011L199.426 78.7791L198.949 80.5518C198.877 80.8184 199.035 81.0928 199.302 81.1646L198.607 83.7444C198.347 83.6743 198.079 83.8231 198 84.0782C197.921 83.8231 197.653 83.6743 197.393 83.7444L196.698 81.1646C196.965 81.0928 197.123 80.8184 197.051 80.5518L196.574 78.7791L196.499 78.5011L196.221 78.4263L194.448 77.949C194.181 77.8772 193.907 78.0352 193.835 78.3018L191.256 77.6072C191.326 77.3469 191.177 77.0793 190.922 76.9999C191.177 76.9205 191.326 76.6529 191.256 76.3926L193.835 75.698C193.907 75.9646 194.181 76.1226 194.448 76.0508L196.221 75.5735L196.499 75.4987L196.574 75.2207L197.051 73.448C197.123 73.1814 196.965 72.907 196.698 72.8352L197.393 70.2554C197.653 70.3255 197.921 70.1767 198 69.9216C198.079 70.1767 198.347 70.3255 198.607 70.2554L199.302 72.8352C199.035 72.907 198.877 73.1814 198.949 73.448L199.426 75.2207Z" fill="#F6F7FB" stroke="#F6F7FB" stroke-linecap="round" stroke-dasharray="4 4"/>
<path d="M40.7564 44.7827L43.2972 46.4792L43.7344 46.7712L44.2228 46.5765L47.0607 45.4453L46.2323 48.3859L46.0898 48.892L46.4258 49.2963L48.3787 51.6458L45.326 51.7666L44.8007 51.7874L44.52 52.232L42.8889 54.8152L41.8306 51.9493L41.6485 51.4561L41.139 51.3266L38.1781 50.5736L40.5768 48.6815L40.9895 48.3559L40.9553 47.8313L40.7564 44.7827Z" fill="#F6F7FB" stroke="#F6F7FB" stroke-width="2"/>
<path d="M161.463 65.304L161.703 65.4642L161.971 65.3574L161.893 65.6351L162.077 65.857L161.789 65.8684L161.635 66.1124L161.535 65.8417L161.255 65.7706L161.482 65.5919L161.463 65.304Z" fill="#F6F7FB" stroke="#F6F7FB" stroke-width="2"/>
<path d="M177.742 101.389L177.743 101.387L177.75 101.377C177.755 101.37 177.762 101.361 177.772 101.348C177.774 101.345 177.776 101.342 177.779 101.339C177.804 101.305 177.843 101.257 177.892 101.198C177.992 101.08 178.135 100.925 178.309 100.774L178.145 100.586C178.565 100.221 179.158 99.8736 179.783 100.045L179.716 100.286C179.913 100.34 180.127 100.462 180.349 100.697C180.546 100.904 180.659 101.119 180.712 101.336L180.955 101.277C181.086 101.811 180.92 102.385 180.603 102.943L180.386 102.819C180.126 103.276 179.753 103.728 179.353 104.141L179.533 104.315C179.083 104.779 178.608 105.184 178.235 105.48L178.079 105.284C177.878 105.444 177.706 105.572 177.585 105.66C177.565 105.674 177.547 105.687 177.53 105.7C177.511 105.688 177.491 105.674 177.469 105.66C177.342 105.577 177.162 105.455 176.951 105.301L176.804 105.504C176.41 105.217 175.911 104.823 175.443 104.365L175.618 104.186C175.199 103.776 174.816 103.323 174.562 102.859L174.343 102.979C174.037 102.422 173.9 101.838 174.082 101.276L174.319 101.353C174.39 101.136 174.518 100.916 174.725 100.697C174.947 100.462 175.161 100.341 175.358 100.287L175.292 100.046C175.916 99.8745 176.509 100.222 176.929 100.586L176.765 100.775C176.939 100.926 177.082 101.081 177.182 101.198C177.232 101.257 177.27 101.306 177.296 101.339C177.309 101.356 177.318 101.369 177.324 101.377L177.331 101.387L177.332 101.389L177.537 101.681L177.742 101.389Z" stroke="#F6F7FB" stroke-width="0.5" stroke-dasharray="2 2"/>
<path d="M12.8469 77.9636L12.913 78.2426L13.1872 78.3265L15.3538 78.9894C15.6179 79.0702 15.8974 78.9216 15.9782 78.6575L19.3552 79.6908C19.2744 79.9549 19.423 80.2344 19.6871 80.3152L20.291 80.5L19.6871 80.6848C19.423 80.7656 19.2744 81.0451 19.3552 81.3092L15.9782 82.3425C15.8974 82.0784 15.6179 81.9298 15.3538 82.0106L13.1872 82.6735L12.913 82.7574L12.8469 83.0364L12.2636 85.4985C12.1999 85.7672 12.3661 86.0366 12.6348 86.1003L11.6986 90.0514C11.4299 89.9877 11.1605 90.1539 11.0968 90.4226L11 90.8313L10.9032 90.4226C10.8395 90.1539 10.5701 89.9877 10.3014 90.0514L9.36521 86.1003C9.63391 86.0366 9.80013 85.7672 9.73646 85.4985L9.1531 83.0364L9.087 82.7574L8.81286 82.6735L6.64622 82.0106C6.38216 81.9298 6.1026 82.0784 6.02181 82.3425L2.64478 81.3092C2.72557 81.0451 2.577 80.7656 2.31294 80.6848L1.70898 80.5L2.31294 80.3152C2.577 80.2344 2.72557 79.9549 2.64478 79.6908L6.02181 78.6575C6.1026 78.9216 6.38216 79.0702 6.64622 78.9894L8.81286 78.3265L9.087 78.2426L9.1531 77.9636L9.73646 75.5015C9.80013 75.2328 9.63391 74.9634 9.36521 74.8997L10.3014 70.9486C10.5701 71.0123 10.8395 70.8461 10.9032 70.5774L11 70.1687L11.0968 70.5774C11.1605 70.8461 11.4299 71.0123 11.6986 70.9486L12.6348 74.8997C12.3661 74.9634 12.1999 75.2328 12.2636 75.5015L12.8469 77.9636Z" stroke="#F6F7FB" stroke-linecap="round" stroke-dasharray="4 4"/>
<path d="M140.583 50H92.375C88.2958 50 84.9583 53.3375 84.9583 57.4167V90.7917C84.9583 92.7587 85.7397 94.6451 87.1306 96.036C88.5215 97.4269 90.408 98.2083 92.375 98.2083H140.583C144.7 98.2083 148 94.9079 148 90.7917V57.4167C148 55.4496 147.219 53.5632 145.828 52.1723C144.437 50.7814 142.55 50 140.583 50ZM140.583 90.7917H92.375V63.6096L116.479 75.9583L140.583 63.6096V90.7917ZM116.479 69.6913L92.375 57.4167H140.583L116.479 69.6913ZM77.5417 90.7917C77.5417 91.4221 77.6529 92.0154 77.7271 92.6458H62.7083C60.6613 92.6458 59 90.9771 59 88.9375C59 86.8979 60.6613 85.2292 62.7083 85.2292H77.5417V90.7917ZM70.125 55.5625H77.7271C77.6529 56.1929 77.5417 56.7862 77.5417 57.4167V62.9792H70.125C68.0854 62.9792 66.4167 61.3104 66.4167 59.2708C66.4167 57.2312 68.0854 55.5625 70.125 55.5625ZM62.7083 74.1042C62.7083 72.0646 64.3771 70.3958 66.4167 70.3958H77.5417V77.8125H66.4167C64.3771 77.8125 62.7083 76.1437 62.7083 74.1042Z" fill="#254F72"/>
</g>
<defs>
<clipPath id="clip0_226_333">
<rect width="207" height="106" fill="white"/>
</clipPath>
</defs>
</svg>
