<svg width="72" height="96" viewBox="0 0 72 96" fill="none" xmlns="http://www.w3.org/2000/svg">
<g clip-path="url(#clip0_12110_38949)">
<path d="M0.5 5.27041V34.7168C0.5 37.6294 2.72758 39.9872 5.47238 39.9872H21.6271C21.9825 39.9872 22.3061 39.7618 22.4457 39.4188L25.9743 30.8186C26.1298 30.4385 26.482 30.193 26.8723 30.193C26.9009 30.193 26.9263 30.193 26.958 30.1964C27.3769 30.2334 27.7259 30.5495 27.8275 30.98L30.8452 43.9055C31.0768 44.8977 32.4127 44.8573 32.5904 43.8584L38.2323 12.051C38.318 11.5599 38.7242 11.2034 39.197 11.2034H39.2287C39.7142 11.2202 40.1109 11.6003 40.1712 12.1115L44.6422 49.9596C44.7691 51.0291 46.2034 51.0863 46.4033 50.0336L51.0933 25.528C51.1821 25.0605 51.5597 24.7208 52.0071 24.6973H52.0547C52.4831 24.6973 52.8671 25 52.994 25.4338L56.3258 37.1249C56.5797 38.0196 57.7696 38.0263 58.033 37.1384L59.9591 30.6437C60.0861 30.2166 60.4541 29.9239 60.8952 29.9139C61.3077 29.9139 61.679 30.1897 61.8186 30.6033L64.5888 38.7864C64.7157 39.1631 65.0521 39.4154 65.4297 39.4154H66.5245C69.2724 39.4154 71.4968 37.0543 71.4968 34.145V5.27041C71.4968 2.35773 69.2693 0 66.5245 0H5.47238C2.72758 0 0.5 2.36109 0.5 5.27041Z" fill="#67C5AD"/>
<path d="M63.1894 40.8112L61.8567 36.8693C61.5679 36.0117 60.4192 36.0352 60.1622 36.903L58.0838 43.9089C57.9569 44.3394 57.5856 44.6286 57.135 44.6286C56.713 44.6286 56.3322 44.3293 56.2084 43.9022L53.2701 33.6001C53.0003 32.655 51.7247 32.7189 51.5407 33.6842L46.0542 62.3435C45.9622 62.8245 45.5592 63.1777 45.0959 63.1777H45.042C44.566 63.1507 44.1789 62.7707 44.1218 62.2695L39.7174 24.9899V24.9832C39.5905 23.9103 38.1403 23.8632 37.9531 24.926V24.9327L32.9331 53.2288C32.8474 53.7064 32.454 54.0629 31.9653 54.0764C31.5147 54.0764 31.1244 53.7535 31.0133 53.2893L27.2563 37.1956C27.05 36.3144 25.9109 36.2135 25.5682 37.0442L23.7594 41.4603C23.604 41.8404 23.2517 42.0859 22.8614 42.0859H5.47238C2.7244 42.0859 0.5 44.447 0.5 47.3563V69.9986C0.5 72.9113 2.72758 75.269 5.47238 75.269H66.5276C69.2756 75.269 71.5 72.9079 71.5 69.9986V46.7879C71.5 43.8752 69.2724 41.5175 66.5276 41.5175H64.1128C63.7003 41.5175 63.3259 41.2384 63.1894 40.8247V40.8112Z" fill="#224F74"/>
<path d="M6.18955 88.4365L3.29561 84.2189H0.64917V95.3416H3.18137V89.9433C3.18137 89.496 3.72081 89.3077 3.97149 89.6709L5.7929 92.3112H6.50052L8.39809 89.6305C8.64877 89.274 9.18504 89.4624 9.18504 89.9097V95.3416H11.7172V84.2189H9.08667L6.19272 88.4365H6.18955Z" fill="white"/>
<path d="M17.2322 95.3245H24.1878V92.6674H19.4471C19.0251 92.6674 18.6823 92.3041 18.6823 91.8568C18.6823 91.4095 19.0251 91.0463 19.4471 91.0463H23.9943V88.4934H19.4471C19.0251 88.4934 18.6823 88.1302 18.6823 87.6829V87.6392C18.6823 87.1918 19.0251 86.8286 19.4471 86.8286H24.1878V84.2018H16.1597V94.1876C16.1597 94.8132 16.6388 95.3245 17.2322 95.3245Z" fill="white"/>
<path d="M36.4459 85.9275C36.0238 85.3961 35.4653 84.9689 34.7831 84.6595C34.1072 84.3534 33.333 84.1987 32.4762 84.1987H28.2812V95.3214H32.4762C33.3425 95.3214 34.1326 95.16 34.8212 94.8371C35.5193 94.5142 36.0841 94.0702 36.503 93.522C36.9155 92.9839 37.2265 92.3785 37.4327 91.7192C37.6358 91.0634 37.7342 90.3739 37.7246 89.6642C37.7151 88.9646 37.6009 88.2886 37.3883 87.6596C37.1757 87.0273 36.8584 86.4421 36.4459 85.9208V85.9275ZM30.8008 86.7818H32.4762C33.371 86.7818 34.0279 87.0509 34.4817 87.6025C34.9513 88.1709 35.1861 88.8469 35.202 89.6676C35.2178 90.5286 35.0021 91.2383 34.5356 91.8437C34.085 92.4289 33.4123 92.7114 32.473 92.7114H31.5623C31.1403 92.7114 30.7976 92.3482 30.7976 91.9009V86.7818H30.8008Z" fill="white"/>
<path d="M54.1173 88.4365L51.2233 84.2189H48.5769V95.3416H51.1091V89.9433C51.1091 89.496 51.6485 89.3077 51.8992 89.6709L53.7206 92.3112H54.4283L56.3258 89.6305C56.5765 89.274 57.1128 89.4624 57.1128 89.9097V95.3416H59.645V84.2189H57.0144L54.1205 88.4365H54.1173Z" fill="white"/>
<path d="M64.0874 85.0124V95.3245H65.8422C66.2642 95.3245 66.6069 94.9612 66.6069 94.5139V84.2018H64.8521C64.4301 84.2018 64.0874 84.565 64.0874 85.0124Z" fill="white"/>
<path d="M70.1958 95.3248C70.8915 95.3248 71.4555 94.727 71.4555 93.9896C71.4555 93.2521 70.8915 92.6543 70.1958 92.6543C69.5 92.6543 68.936 93.2521 68.936 93.9896C68.936 94.727 69.5 95.3248 70.1958 95.3248Z" fill="#33947F"/>
<path d="M41.6086 85.0127V95.3248H43.3634C43.7854 95.3248 44.1282 94.9616 44.1282 94.5143V84.2021H42.3734C41.9513 84.2021 41.6086 84.5654 41.6086 85.0127Z" fill="white"/>
</g>
<defs>
<clipPath id="clip0_12110_38949">
<rect width="71" height="95.3382" fill="white" transform="translate(0.5)"/>
</clipPath>
</defs>
</svg>
